{"glyphs":{"0":{"ha":1158,"x_min":79,"x_max":1069,"o":"m 271 1000 l 878 1000 q 1013 942 957 1000 q 1069 804 1069 883 l 1069 197 q 1013 59 1069 118 q 878 0 957 0 l 271 0 q 135 59 192 0 q 79 197 79 118 l 79 804 q 135 942 79 883 q 271 1000 192 1000 m 806 814 l 271 814 q 261 804 261 814 l 261 357 l 806 814 m 343 188 l 878 188 q 888 197 888 188 l 888 644 l 343 188 z "},"1":{"ha":543,"x_min":1,"x_max":504,"o":"m 1 640 l 303 1000 l 504 1000 l 504 0 l 322 0 l 322 735 l 242 640 l 1 640 z "},"2":{"ha":1153,"x_min":79,"x_max":1069,"o":"m 271 1000 l 878 1000 q 1013 944 957 1000 q 1069 808 1069 888 l 1069 586 q 1013 451 1069 507 q 878 394 957 394 l 271 394 q 261 386 261 394 l 261 192 q 271 182 261 182 l 1069 182 l 1069 0 l 79 0 l 79 386 q 135 522 79 465 q 271 578 192 578 l 878 578 q 888 586 888 578 l 888 808 q 878 818 888 818 l 271 818 q 261 808 261 818 l 261 733 l 79 733 l 79 808 q 135 944 79 888 q 271 1000 192 1000 z "},"3":{"ha":1147,"x_min":74,"x_max":1064,"o":"m 1025 808 l 1025 608 q 1011 539 1025 568 q 1064 408 1064 483 l 1064 192 q 1008 56 1064 113 q 874 0 953 0 l 265 0 q 130 56 186 0 q 74 192 74 113 l 74 251 l 256 251 l 256 192 q 265 182 256 182 l 874 182 q 882 192 882 182 l 882 408 q 874 418 882 418 l 246 418 l 246 600 l 833 600 q 843 608 843 600 l 843 808 q 833 818 843 818 l 265 818 q 256 808 256 818 l 256 736 l 74 736 l 74 808 q 130 944 74 888 q 265 1000 186 1000 l 833 1000 q 969 944 913 1000 q 1025 808 1025 888 z "},"4":{"ha":1014,"x_min":8,"x_max":960,"o":"m 819 433 l 960 433 l 960 251 l 819 251 l 819 0 l 638 0 l 638 251 l 8 251 l 8 422 l 649 1000 l 819 1000 l 819 433 m 638 714 l 292 433 l 638 433 l 638 714 z "},"5":{"ha":1153,"x_min":79,"x_max":1069,"o":"m 261 808 l 261 613 q 271 604 261 604 l 878 604 q 1013 548 957 604 q 1069 413 1069 492 l 1069 192 q 1013 56 1069 113 q 878 0 957 0 l 271 0 q 135 56 192 0 q 79 192 79 113 l 79 267 l 261 267 l 261 192 q 271 182 261 182 l 878 182 q 888 192 888 182 l 888 413 q 878 421 888 421 l 79 421 l 79 1000 l 1069 1000 l 1069 818 l 271 818 q 261 808 261 818 z "},"6":{"ha":1139,"x_min":79,"x_max":1069,"o":"m 271 604 l 878 604 q 1013 548 957 604 q 1069 413 1069 492 l 1069 192 q 1013 56 1069 113 q 878 0 957 0 l 271 0 q 135 56 192 0 q 79 192 79 113 l 79 808 q 135 944 79 888 q 271 1000 192 1000 l 911 1000 l 911 818 l 271 818 q 261 808 261 818 l 261 613 q 271 604 261 604 m 888 192 l 888 413 q 878 421 888 421 l 261 421 l 261 192 q 271 182 261 182 l 878 182 q 888 192 888 182 z "},"7":{"ha":917,"x_min":4,"x_max":836,"o":"m 4 1000 l 644 1000 q 780 944 724 1000 q 836 808 836 888 l 836 0 l 654 0 l 654 808 q 644 818 654 818 l 4 818 l 4 1000 z "},"8":{"ha":1158,"x_min":79,"x_max":1069,"o":"m 1069 842 l 1069 613 q 1042 513 1069 554 q 1069 413 1069 471 l 1069 192 q 1013 56 1069 113 q 878 0 957 0 l 271 0 q 135 56 192 0 q 79 192 79 113 l 79 413 q 107 513 79 468 q 79 613 79 557 l 79 808 q 135 944 79 888 q 271 1000 192 1000 l 878 1000 q 1003 955 949 1000 q 1069 842 1058 910 m 888 192 l 888 413 q 878 421 888 421 l 271 421 q 261 413 261 421 l 261 192 q 271 182 261 182 l 878 182 q 888 192 888 182 m 888 599 l 888 807 q 878 817 888 817 l 271 817 q 261 807 261 817 l 261 599 q 271 589 261 589 l 878 589 q 888 599 888 589 z "},"9":{"ha":1150,"x_min":71,"x_max":1063,"o":"m 872 400 l 264 400 q 128 456 185 400 q 72 592 72 513 l 72 808 q 128 944 72 888 q 264 1000 185 1000 l 872 1000 q 1007 944 951 1000 q 1063 808 1063 888 l 1063 192 q 1007 56 1063 113 q 872 0 951 0 l 264 0 q 139 52 193 0 q 71 182 85 104 l 872 182 q 881 192 881 182 l 881 392 q 872 400 881 400 m 256 808 l 256 592 q 264 583 256 583 l 881 583 l 881 808 q 872 818 881 818 l 264 818 q 256 808 256 818 z "}," ":{"ha":428,"x_min":0,"x_max":0,"o":""},"!":{"ha":306,"x_min":81,"x_max":263,"o":"m 263 0 l 81 0 l 81 182 l 263 182 l 263 0 m 81 274 l 81 1000 l 263 1000 l 263 274 l 81 274 z "},"\"":{"ha":517,"x_min":82,"x_max":486,"o":"m 265 999 l 265 746 l 82 746 l 82 999 l 265 999 m 486 999 l 486 746 l 304 746 l 304 999 l 486 999 z "},"#":{"ha":1107,"x_min":44,"x_max":1051,"o":"m 1051 786 l 1051 604 l 889 604 l 825 404 l 1011 404 l 1011 222 l 768 222 l 701 0 l 518 0 l 586 222 l 342 222 l 275 0 l 92 0 l 160 222 l 44 222 l 44 404 l 215 404 l 279 604 l 85 604 l 85 786 l 338 786 l 407 1000 l 593 1000 l 521 786 l 764 786 l 835 1000 l 1019 1000 l 947 786 l 1051 786 m 399 404 l 642 404 l 706 604 l 463 604 l 399 404 z "},"$":{"ha":1094,"x_min":47,"x_max":1038,"o":"m 1038 808 l 1038 733 l 856 733 l 856 808 q 846 818 856 818 l 633 818 l 633 592 l 846 592 q 981 535 925 592 q 1038 400 1038 479 l 1038 192 q 981 56 1038 113 q 846 0 925 0 l 633 0 l 633 -143 l 451 -143 l 451 0 l 239 0 q 103 56 160 0 q 47 192 47 113 l 47 267 l 229 267 l 229 192 q 239 182 229 182 l 451 182 l 451 410 l 239 410 q 103 466 160 410 q 47 601 47 522 l 47 808 q 103 944 47 888 q 239 1000 160 1000 l 451 1000 l 451 1143 l 633 1143 l 633 1000 l 846 1000 q 981 944 925 1000 q 1038 808 1038 888 m 846 410 l 633 410 l 633 182 l 846 182 q 856 192 856 182 l 856 400 q 846 410 856 410 m 451 592 l 451 818 l 239 818 q 229 808 229 818 l 229 601 q 239 592 229 592 l 451 592 z "},"%":{"ha":1342,"x_min":67,"x_max":1253,"o":"m 1122 1000 l 1168 1000 l 1168 801 l 224 0 l 178 0 l 178 199 l 1122 1000 m 258 990 l 378 990 q 513 934 457 990 q 569 799 569 878 l 569 693 q 513 558 569 614 q 378 501 457 501 l 258 501 q 123 558 179 501 q 67 693 67 614 l 67 799 q 123 934 67 878 q 258 990 179 990 m 232 658 l 404 658 q 413 667 413 658 l 413 825 q 404 835 413 835 l 232 835 q 222 825 222 835 l 222 667 q 232 658 222 658 m 943 488 l 1061 488 q 1197 431 1140 488 q 1253 296 1253 375 l 1253 190 q 1197 55 1253 111 q 1061 -1 1140 -1 l 943 -1 q 808 55 864 -1 q 751 190 751 111 l 751 296 q 808 431 751 375 q 943 488 864 488 m 917 154 l 1088 154 q 1097 164 1097 154 l 1097 322 q 1088 332 1097 332 l 917 332 q 907 322 907 332 l 907 164 q 917 154 907 154 z "},"&":{"ha":1303,"x_min":74,"x_max":1232,"o":"m 1064 271 l 1232 172 l 1232 -11 l 1040 97 q 972 26 1017 53 q 872 0 926 0 l 265 0 q 130 56 186 0 q 74 192 74 113 l 74 461 q 92 526 74 492 q 143 575 111 561 q 126 661 126 604 l 126 808 q 183 944 126 888 q 318 1000 239 1000 l 833 1000 q 958 955 903 1000 q 1024 842 1013 910 l 1024 724 l 842 724 l 842 807 q 833 817 842 817 l 318 817 q 308 807 308 817 l 308 635 l 882 346 l 882 497 l 1064 497 l 1064 271 m 265 182 l 844 182 l 275 469 l 265 469 q 256 461 256 469 l 256 192 q 265 182 256 182 z "},"'":{"ha":311,"x_min":82,"x_max":264,"o":"m 264 999 l 264 746 l 82 746 l 82 999 l 264 999 z "},"(":{"ha":385,"x_min":72,"x_max":339,"o":"m 263 182 l 339 182 l 339 0 l 263 0 q 128 56 183 0 q 72 192 72 113 l 72 808 q 128 944 72 888 q 263 1000 183 1000 l 339 1000 l 339 818 l 263 818 q 254 808 254 818 l 254 192 q 263 182 254 182 z "},")":{"ha":386,"x_min":78,"x_max":346,"o":"m 78 0 l 78 182 l 154 182 q 163 192 163 182 l 163 808 q 154 818 163 818 l 78 818 l 78 1000 l 154 1000 q 289 944 232 1000 q 346 808 346 888 l 346 192 q 289 56 346 113 q 154 0 232 0 l 78 0 z "},"*":{"ha":682,"x_min":35,"x_max":667,"o":"m 610 878 l 667 703 l 497 649 l 603 506 l 456 399 l 349 542 l 246 399 l 99 506 l 203 649 l 35 703 l 90 878 l 258 821 l 258 999 l 442 999 l 442 822 l 610 878 z "},"+":{"ha":601,"x_min":24,"x_max":592,"o":"m 214 693 l 396 693 l 396 501 l 592 501 l 592 319 l 396 319 l 396 125 l 214 125 l 214 319 l 24 319 l 24 501 l 214 501 l 214 693 z "},",":{"ha":306,"x_min":75,"x_max":257,"o":"m 75 165 l 257 165 l 257 3 q 205 -122 257 -68 q 75 -190 153 -176 l 75 165 z "},"-":{"ha":718,"x_min":82,"x_max":650,"o":"m 650 501 l 650 319 l 82 319 l 82 501 l 650 501 z "},".":{"ha":297,"x_min":75,"x_max":257,"o":"m 257 182 l 257 0 l 75 0 l 75 182 l 257 182 z "},"/":{"ha":724,"x_min":8,"x_max":721,"o":"m 8 197 l 672 1000 l 721 1000 l 721 804 l 57 0 l 8 0 l 8 197 z "},":":{"ha":297,"x_min":75,"x_max":257,"o":"m 75 182 l 257 182 l 257 0 l 75 0 l 75 182 m 257 817 l 257 633 l 75 633 l 75 817 l 257 817 z "},";":{"ha":301,"x_min":71,"x_max":253,"o":"m 253 817 l 253 633 l 71 633 l 71 817 l 253 817 m 71 165 l 253 165 l 253 3 q 201 -122 253 -68 q 71 -190 149 -176 l 71 165 z "},"<":{"ha":657,"x_min":7,"x_max":589,"o":"m 226 411 l 589 201 l 589 -10 l 7 329 l 7 493 l 589 829 l 589 619 l 226 411 z "},"=":{"ha":886,"x_min":82,"x_max":808,"o":"m 808 371 l 808 189 l 82 189 l 82 371 l 808 371 m 808 622 l 808 440 l 82 440 l 82 622 l 808 622 z "},">":{"ha":660,"x_min":82,"x_max":665,"o":"m 82 -12 l 82 199 l 443 408 l 82 617 l 82 826 l 665 490 l 665 326 l 82 -12 z "},"?":{"ha":942,"x_min":43,"x_max":910,"o":"m 43 1000 l 718 1000 q 854 944 799 1000 q 910 808 910 888 l 910 565 q 854 430 910 486 q 718 374 799 374 l 376 374 q 368 365 368 374 l 368 272 l 185 272 l 185 365 q 241 501 185 444 q 376 557 297 557 l 718 557 q 728 565 728 557 l 728 808 q 718 818 728 818 l 43 818 l 43 1000 m 368 0 l 185 0 l 185 182 l 368 182 l 368 0 z "},"@":{"ha":1154,"x_min":79,"x_max":1069,"o":"m 529 735 l 621 735 q 756 679 700 735 q 811 544 811 624 l 811 431 l 888 431 l 888 808 q 878 818 888 818 l 271 818 q 261 808 261 818 l 261 192 q 271 182 261 182 l 1069 182 l 1069 0 l 271 0 q 135 56 192 0 q 79 192 79 113 l 79 808 q 135 944 79 888 q 271 1000 192 1000 l 878 1000 q 1013 944 957 1000 q 1069 808 1069 888 l 1069 275 l 529 275 q 394 331 450 275 q 338 467 338 386 l 338 544 q 394 679 338 624 q 529 735 450 735 m 489 431 l 669 431 l 669 585 q 661 593 669 593 l 489 593 q 479 585 479 593 l 479 440 q 489 431 479 431 z "},"A":{"ha":1161,"x_min":81,"x_max":1081,"o":"m 274 1000 l 886 1000 q 1024 944 967 1000 q 1081 807 1081 888 l 1081 0 l 896 0 l 896 336 l 264 336 l 264 0 l 81 0 l 81 807 q 137 944 81 888 q 274 1000 193 1000 m 264 519 l 896 519 l 896 807 q 886 817 896 817 l 274 817 q 264 807 264 817 l 264 519 z "},"B":{"ha":1156,"x_min":82,"x_max":1082,"o":"m 1042 807 l 1042 611 q 1028 540 1042 569 q 1082 408 1082 483 l 1082 193 q 1025 56 1082 113 q 888 0 968 0 l 82 0 l 82 1000 l 849 1000 q 985 944 928 1000 q 1042 807 1042 888 m 849 817 l 275 817 q 265 807 265 817 l 265 611 q 275 601 265 601 l 849 601 q 857 611 857 601 l 857 807 q 849 817 857 817 m 897 193 l 897 408 q 888 417 897 417 l 275 417 q 265 408 265 417 l 265 193 q 275 183 265 183 l 888 183 q 897 193 897 183 z "},"C":{"ha":1142,"x_min":78,"x_max":1075,"o":"m 1075 817 l 271 817 q 261 807 261 817 l 261 193 q 271 183 261 183 l 1075 183 l 1075 0 l 271 0 q 134 56 190 0 q 78 193 78 113 l 78 807 q 134 944 78 888 q 271 1000 190 1000 l 1075 1000 l 1075 817 z "},"D":{"ha":1158,"x_min":81,"x_max":1081,"o":"m 81 1000 l 886 1000 q 1024 944 967 1000 q 1081 807 1081 888 l 1081 193 q 1024 56 1081 113 q 886 0 967 0 l 81 0 l 81 1000 m 896 193 l 896 807 q 886 817 896 817 l 274 817 q 264 807 264 817 l 264 193 q 274 183 264 183 l 886 183 q 896 193 896 183 z "},"E":{"ha":1064,"x_min":81,"x_max":1000,"o":"m 1000 1000 l 1000 817 l 265 817 l 265 592 l 857 592 l 857 408 l 265 408 l 265 183 l 1000 183 l 1000 0 l 81 0 l 81 1000 l 1000 1000 z "},"F":{"ha":1004,"x_min":81,"x_max":1000,"o":"m 81 1000 l 1000 1000 l 1000 817 l 265 817 l 265 592 l 857 592 l 857 408 l 265 408 l 265 0 l 81 0 l 81 1000 z "},"G":{"ha":1153,"x_min":78,"x_max":1078,"o":"m 1078 807 l 1078 729 l 893 729 l 893 807 q 883 817 893 817 l 271 817 q 261 807 261 817 l 261 193 q 271 183 261 183 l 883 183 q 893 193 893 183 l 893 382 l 667 382 l 667 565 l 1078 565 l 1078 193 q 1021 56 1078 113 q 883 0 964 0 l 271 0 q 134 56 190 0 q 78 193 78 113 l 78 807 q 134 944 78 888 q 271 1000 190 1000 l 883 1000 q 1021 944 964 1000 q 1078 807 1078 888 z "},"H":{"ha":1182,"x_min":79,"x_max":1101,"o":"m 918 1000 l 1101 1000 l 1101 0 l 918 0 l 918 408 l 263 408 l 263 0 l 79 0 l 79 1000 l 263 1000 l 263 592 l 918 592 l 918 1000 z "},"I":{"ha":306,"x_min":79,"x_max":263,"o":"m 79 0 l 79 1000 l 263 1000 l 263 0 l 79 0 z "},"J":{"ha":1083,"x_min":6,"x_max":1006,"o":"m 821 193 l 821 1000 l 1006 1000 l 1006 193 q 949 56 1006 113 q 813 0 892 0 l 199 0 q 62 56 118 0 q 6 193 6 113 l 6 307 l 189 307 l 189 193 q 199 183 189 183 l 813 183 q 821 193 821 183 z "},"K":{"ha":1107,"x_min":79,"x_max":1043,"o":"m 842 1000 l 1043 1000 l 1043 951 l 665 500 l 1043 49 l 1043 0 l 842 0 l 500 408 l 264 408 l 264 0 l 79 0 l 79 1000 l 264 1000 l 264 592 l 500 592 l 842 1000 z "},"L":{"ha":1082,"x_min":79,"x_max":1079,"o":"m 79 0 l 79 1001 l 263 1001 l 263 183 l 1079 183 l 1079 0 l 79 0 z "},"M":{"ha":1289,"x_min":78,"x_max":1206,"o":"m 642 567 l 1004 1000 l 1206 1000 l 1206 0 l 1021 0 l 1021 733 l 642 282 l 261 733 l 261 0 l 78 0 l 78 1000 l 278 1000 l 642 567 z "},"N":{"ha":1156,"x_min":78,"x_max":1078,"o":"m 893 267 l 893 1000 l 1078 1000 l 1078 0 l 878 0 l 261 733 l 261 0 l 78 0 l 78 1000 l 278 1000 l 893 267 z "},"O":{"ha":1150,"x_min":75,"x_max":1075,"o":"m 268 1000 l 882 1000 q 1018 944 961 1000 q 1075 807 1075 888 l 1075 193 q 1018 56 1075 113 q 882 0 961 0 l 268 0 q 131 56 188 0 q 75 193 75 113 l 75 807 q 131 944 75 888 q 268 1000 188 1000 m 268 183 l 882 183 q 890 193 890 183 l 890 807 q 882 817 890 817 l 268 817 q 258 807 258 817 l 258 193 q 268 183 258 183 z "},"P":{"ha":1099,"x_min":78,"x_max":1078,"o":"m 78 999 l 883 999 q 1021 942 964 999 q 1078 806 1078 885 l 1078 536 q 1021 400 1078 457 q 883 343 964 343 l 265 342 l 261 343 l 261 0 l 78 0 l 78 999 m 893 536 l 893 806 q 883 815 893 815 l 271 815 q 261 806 261 815 l 261 536 q 271 526 261 526 l 883 526 q 893 536 893 526 z "},"Q":{"ha":1228,"x_min":75,"x_max":1194,"o":"m 1075 183 l 1194 183 l 1194 0 l 268 0 q 131 56 188 0 q 75 193 75 113 l 75 807 q 131 944 75 888 q 268 1000 188 1000 l 881 1000 q 1018 944 961 1000 q 1075 807 1075 888 l 1075 183 m 268 183 l 881 183 q 890 193 890 183 l 890 807 q 881 817 890 817 l 268 817 q 258 807 258 817 l 258 193 q 268 183 258 183 z "},"R":{"ha":1146,"x_min":76,"x_max":1076,"o":"m 1076 806 l 1076 536 q 1019 400 1076 457 q 882 343 963 343 l 828 343 l 1076 47 l 1076 0 l 876 0 l 588 343 l 264 343 l 260 343 l 260 0 l 76 0 l 76 999 l 882 999 q 1019 942 963 999 q 1076 806 1076 885 m 269 526 l 882 526 q 892 536 892 526 l 892 806 q 882 815 892 815 l 269 815 q 260 806 260 815 l 260 536 q 269 526 260 526 z "},"S":{"ha":1142,"x_min":71,"x_max":1071,"o":"m 1071 807 l 1071 731 l 886 731 l 886 807 q 878 817 886 817 l 264 817 q 254 807 254 817 l 254 601 q 264 592 254 592 l 878 592 q 1014 535 957 592 q 1071 399 1071 479 l 1071 193 q 1014 56 1071 113 q 878 0 957 0 l 264 0 q 127 56 183 0 q 71 193 71 113 l 71 269 l 254 269 l 254 193 q 264 183 254 183 l 878 183 q 886 193 886 183 l 886 399 q 878 408 886 408 l 264 408 q 127 465 183 408 q 71 601 71 521 l 71 807 q 127 944 71 888 q 264 1000 183 1000 l 878 1000 q 1014 944 957 1000 q 1071 807 1071 888 z "},"T":{"ha":1054,"x_min":28,"x_max":1028,"o":"m 28 1000 l 1028 1000 l 1028 817 l 621 817 l 621 0 l 436 0 l 436 817 l 28 817 l 28 1000 z "},"U":{"ha":1150,"x_min":75,"x_max":1075,"o":"m 890 193 l 890 1000 l 1075 1000 l 1075 193 q 1018 56 1075 113 q 882 0 961 0 l 268 0 q 131 56 188 0 q 75 193 75 113 l 75 1000 l 258 1000 l 258 193 q 268 183 258 183 l 882 183 q 890 193 890 183 z "},"V":{"ha":1393,"x_min":49,"x_max":1369,"o":"m 710 222 l 1157 1000 l 1369 1000 l 792 0 l 626 0 l 49 1000 l 261 1000 l 710 222 z "},"W":{"ha":1638,"x_min":49,"x_max":1583,"o":"m 1389 1000 l 1583 1000 l 1219 0 l 1075 0 l 815 710 l 556 0 l 413 0 l 49 1000 l 243 1000 l 485 340 l 726 1000 l 906 1000 l 1147 340 l 1389 1000 z "},"X":{"ha":1128,"x_min":64,"x_max":1064,"o":"m 863 1000 l 1064 1000 l 1064 951 l 683 500 l 1064 49 l 1064 0 l 863 0 l 564 354 l 265 0 l 64 0 l 64 49 l 443 500 l 64 951 l 64 1000 l 265 1000 l 564 646 l 863 1000 z "},"Y":{"ha":1119,"x_min":24,"x_max":1132,"o":"m 913 1000 l 1132 1000 l 669 374 l 669 0 l 486 0 l 486 374 l 24 1000 l 242 1000 l 578 575 l 913 1000 z "},"Z":{"ha":1140,"x_min":71,"x_max":1071,"o":"m 71 817 l 71 1000 l 1071 1000 l 1071 800 l 338 183 l 1071 183 l 1071 0 l 71 0 l 71 200 l 804 817 l 71 817 z "},"[":{"ha":382,"x_min":75,"x_max":342,"o":"m 75 0 l 75 1000 l 342 1000 l 342 818 l 257 818 l 257 182 l 342 182 l 342 0 l 75 0 z "},"\\":{"ha":722,"x_min":7,"x_max":719,"o":"m 7 1000 l 56 1000 l 719 196 l 719 0 l 671 0 l 7 804 l 7 1000 z "},"]":{"ha":383,"x_min":71,"x_max":338,"o":"m 71 818 l 71 1000 l 338 1000 l 338 0 l 71 0 l 71 182 l 154 182 l 154 818 l 71 818 z "},"_":{"ha":1150,"x_min":75,"x_max":1065,"o":"m 1065 0 l 1065 -182 l 75 -182 l 75 0 l 1065 0 z "},"`":{"ha":296,"x_min":44,"x_max":293,"o":"m 229 1346 l 293 1092 l 108 1092 l 44 1346 l 229 1346 z "},"a":{"ha":964,"x_min":72,"x_max":890,"o":"m 699 806 q 834 749 778 806 q 890 614 890 693 l 890 0 l 264 0 q 128 56 185 0 q 72 192 72 113 l 72 494 l 708 494 l 708 614 q 699 624 708 624 l 72 624 l 72 806 l 699 806 m 708 182 l 708 311 l 254 311 l 254 192 q 264 182 254 182 l 708 182 z "},"b":{"ha":926,"x_min":75,"x_max":893,"o":"m 701 806 q 837 749 781 806 q 893 614 893 693 l 893 192 q 837 56 893 113 q 701 0 781 0 l 75 0 l 75 1069 l 257 1069 l 257 806 l 701 806 m 711 192 l 711 614 q 701 624 711 624 l 267 624 q 257 614 257 624 l 257 192 q 267 182 257 182 l 701 182 q 711 192 711 182 z "},"c":{"ha":965,"x_min":71,"x_max":889,"o":"m 263 182 l 889 182 l 889 0 l 263 0 q 127 56 183 0 q 71 192 71 113 l 71 614 q 127 749 71 693 q 263 806 183 806 l 886 806 l 886 624 l 263 624 q 253 614 253 624 l 253 192 q 263 182 253 182 z "},"d":{"ha":926,"x_min":32,"x_max":851,"o":"m 669 1069 l 851 1069 l 851 0 l 224 0 q 88 56 144 0 q 32 192 32 113 l 32 614 q 88 749 32 693 q 224 806 144 806 l 669 806 l 669 1069 m 224 182 l 660 182 q 669 192 669 182 l 669 614 q 660 624 669 624 l 224 624 q 215 614 215 624 l 215 192 q 224 182 215 182 z "},"e":{"ha":961,"x_min":71,"x_max":889,"o":"m 697 806 q 833 749 776 806 q 889 614 889 693 l 889 311 l 253 311 l 253 192 q 263 182 253 182 l 889 182 l 889 0 l 263 0 q 127 56 183 0 q 71 192 71 113 l 71 614 q 127 749 71 693 q 263 806 183 806 l 697 806 m 253 494 l 707 494 l 707 614 q 697 624 707 624 l 263 624 q 253 614 253 624 l 253 494 z "},"f":{"ha":607,"x_min":74,"x_max":569,"o":"m 265 886 q 256 878 256 886 l 256 806 l 569 806 l 569 624 l 256 624 l 256 0 l 74 0 l 74 878 q 129 1013 74 957 q 265 1069 185 1069 l 569 1069 l 569 886 l 265 886 z "},"g":{"ha":949,"x_min":57,"x_max":875,"o":"m 875 -128 q 819 -263 875 -207 q 685 -319 764 -319 l 192 -319 l 192 -136 l 685 -136 q 693 -128 693 -136 l 693 0 l 249 0 q 113 56 169 0 q 57 192 57 113 l 57 614 q 113 749 57 693 q 249 806 169 806 l 685 806 q 819 749 764 806 q 875 614 875 693 l 875 -128 m 249 182 l 685 182 q 693 192 693 182 l 693 614 q 685 624 693 624 l 249 624 q 239 614 239 624 l 239 192 q 249 182 239 182 z "},"h":{"ha":928,"x_min":75,"x_max":893,"o":"m 701 806 q 836 749 779 806 q 893 614 893 693 l 893 0 l 711 0 l 711 614 q 701 624 711 624 l 267 624 q 257 614 257 624 l 257 0 l 75 0 l 75 1069 l 257 1069 l 257 806 l 701 806 z "},"i":{"ha":324,"x_min":72,"x_max":254,"o":"m 72 0 l 72 806 l 254 806 l 254 0 l 72 0 m 72 1069 l 254 1069 l 254 886 l 72 886 l 72 1069 z "},"j":{"ha":332,"x_min":-260,"x_max":279,"o":"m 97 1069 l 279 1069 l 279 886 l 97 886 l 97 1069 m 279 806 l 279 -112 q 223 -248 279 -192 q 88 -304 167 -304 l -260 -304 l -260 -121 l 88 -121 q 97 -112 97 -121 l 97 806 l 279 806 z "},"k":{"ha":897,"x_min":75,"x_max":883,"o":"m 688 806 l 883 806 l 883 758 l 561 403 l 883 47 l 883 0 l 688 0 l 400 311 l 257 311 l 257 0 l 75 0 l 75 1069 l 257 1069 l 257 494 l 400 494 l 688 806 z "},"l":{"ha":478,"x_min":72,"x_max":426,"o":"m 72 1069 l 256 1069 l 256 192 q 264 182 256 182 l 426 182 l 426 0 l 264 0 q 128 56 185 0 q 72 192 72 113 l 72 1069 z "},"m":{"ha":1358,"x_min":75,"x_max":1265,"o":"m 1074 806 q 1209 749 1153 806 q 1265 614 1265 693 l 1265 0 l 1085 0 l 1085 614 q 1074 624 1085 624 l 771 624 q 763 614 763 624 l 763 0 l 579 0 l 579 614 q 571 624 579 624 l 267 624 q 257 614 257 624 l 257 0 l 75 0 l 75 806 l 1074 806 z "},"n":{"ha":967,"x_min":75,"x_max":893,"o":"m 701 806 q 837 749 781 806 q 893 614 893 693 l 893 0 l 711 0 l 711 614 q 701 624 711 624 l 267 624 q 257 614 257 624 l 257 0 l 75 0 l 75 806 l 701 806 z "},"o":{"ha":961,"x_min":71,"x_max":889,"o":"m 263 806 l 697 806 q 833 749 776 806 q 889 614 889 693 l 889 192 q 833 56 889 113 q 697 0 776 0 l 263 0 q 127 56 183 0 q 71 192 71 113 l 71 614 q 127 749 71 693 q 263 806 183 806 m 697 624 l 263 624 q 253 614 253 624 l 253 192 q 263 182 253 182 l 697 182 q 707 192 707 182 l 707 614 q 697 624 707 624 z "},"p":{"ha":922,"x_min":75,"x_max":893,"o":"m 701 806 q 837 749 781 806 q 893 614 893 693 l 893 192 q 837 56 893 113 q 701 0 781 0 l 257 0 l 257 -319 l 75 -319 l 75 806 l 701 806 m 711 192 l 711 614 q 701 624 711 624 l 267 624 q 257 614 257 624 l 257 192 q 267 182 257 182 l 701 182 q 711 192 711 182 z "},"q":{"ha":922,"x_min":28,"x_max":847,"o":"m 28 614 q 84 749 28 693 q 219 806 140 806 l 847 806 l 847 -319 l 665 -319 l 665 0 l 219 0 q 84 56 140 0 q 28 192 28 113 l 28 614 m 211 614 l 211 192 q 219 182 211 182 l 656 182 q 665 192 665 182 l 665 614 q 656 624 665 624 l 219 624 q 211 614 211 624 z "},"r":{"ha":733,"x_min":72,"x_max":711,"o":"m 264 806 l 711 806 l 711 624 l 264 624 q 254 614 254 624 l 254 0 l 72 0 l 72 614 q 128 749 72 693 q 264 806 185 806 z "},"s":{"ha":953,"x_min":67,"x_max":885,"o":"m 885 614 l 885 579 l 703 579 l 703 614 q 693 624 703 624 l 258 624 q 249 614 249 624 l 249 503 q 258 494 249 494 l 693 494 q 829 438 774 494 q 885 303 885 382 l 885 192 q 829 56 885 113 q 693 0 774 0 l 258 0 q 123 56 179 0 q 67 192 67 113 l 67 226 l 249 226 l 249 192 q 258 182 249 182 l 693 182 q 703 192 703 182 l 703 303 q 693 311 703 311 l 258 311 q 123 367 179 311 q 67 503 67 424 l 67 614 q 123 749 67 693 q 258 806 179 806 l 693 806 q 829 749 774 806 q 885 614 885 693 z "},"t":{"ha":607,"x_min":74,"x_max":569,"o":"m 569 624 l 256 624 l 256 192 q 265 182 256 182 l 569 182 l 569 0 l 265 0 q 129 56 185 0 q 74 192 74 113 l 74 1069 l 256 1069 l 256 806 l 569 806 l 569 624 z "},"u":{"ha":965,"x_min":74,"x_max":892,"o":"m 710 806 l 892 806 l 892 192 q 835 56 892 113 q 700 0 779 0 l 265 0 q 129 56 185 0 q 74 192 74 113 l 74 806 l 256 806 l 256 192 q 265 182 256 182 l 700 182 q 710 192 710 182 l 710 806 z "},"v":{"ha":1097,"x_min":29,"x_max":1083,"o":"m 874 806 l 1083 806 l 639 0 l 472 0 l 29 806 l 239 806 l 556 221 l 874 806 z "},"w":{"ha":1467,"x_min":49,"x_max":1426,"o":"m 1233 806 l 1426 806 l 1124 0 l 982 0 l 739 539 l 506 0 l 365 0 l 49 806 l 242 806 l 436 331 l 643 806 l 832 806 l 1051 328 l 1233 806 z "},"x":{"ha":961,"x_min":64,"x_max":896,"o":"m 697 806 l 896 806 l 896 760 l 597 410 l 896 46 l 896 0 l 697 0 l 479 267 l 263 0 l 64 0 l 64 46 l 361 410 l 64 760 l 64 806 l 263 806 l 479 550 l 697 806 z "},"y":{"ha":951,"x_min":58,"x_max":876,"o":"m 876 -128 q 821 -263 876 -207 q 686 -319 765 -319 l 193 -319 l 193 -136 l 686 -136 q 694 -128 694 -136 l 694 0 l 250 0 q 115 56 171 0 q 58 192 58 113 l 58 803 l 240 803 l 240 192 q 250 182 240 182 l 686 182 q 694 192 694 182 l 694 803 l 876 803 l 876 -128 z "},"z":{"ha":969,"x_min":75,"x_max":893,"o":"m 75 624 l 75 806 l 893 806 l 893 607 l 343 182 l 893 182 l 893 0 l 75 0 l 75 199 l 625 624 l 75 624 z "},"{":{"ha":401,"x_min":32,"x_max":357,"o":"m 272 442 l 272 192 q 282 182 272 182 l 357 182 l 357 0 l 282 0 q 146 56 201 0 q 90 192 90 113 l 90 390 q 60 409 81 396 q 32 425 39 422 l 32 590 l 90 622 l 90 808 q 146 944 90 888 q 282 1000 201 1000 l 357 1000 l 357 818 l 282 818 q 272 808 272 818 l 272 571 l 193 507 l 272 442 z "},"|":{"ha":297,"x_min":75,"x_max":257,"o":"m 75 -144 l 75 1133 l 257 1133 l 257 -144 l 75 -144 z "},"}":{"ha":401,"x_min":71,"x_max":396,"o":"m 156 192 l 156 442 l 235 507 l 156 571 l 156 808 q 146 818 156 818 l 71 818 l 71 1000 l 146 1000 q 281 944 225 1000 q 338 808 338 888 l 338 629 q 367 608 347 624 q 396 589 388 593 l 396 425 l 338 390 l 338 192 q 281 56 338 113 q 146 0 225 0 l 71 0 l 71 182 l 146 182 q 156 192 156 182 z "},"~":{"ha":561,"x_min":33,"x_max":539,"o":"m 418 433 q 539 469 485 433 l 539 336 q 415 307 469 307 q 280 351 365 307 q 143 396 194 396 q 33 353 78 396 l 33 497 q 151 524 93 524 q 289 482 204 524 q 418 433 374 440 z "},"¡":{"ha":292,"x_min":74,"x_max":256,"o":"m 256 1000 l 256 818 l 74 818 l 74 1000 l 256 1000 m 256 0 l 74 0 l 74 726 l 256 726 l 256 0 z "},"¢":{"ha":883,"x_min":46,"x_max":863,"o":"m 863 636 l 589 636 l 589 182 l 863 182 l 863 0 l 589 0 l 589 -144 l 406 -144 l 406 0 l 238 0 q 102 56 158 0 q 46 192 46 113 l 46 628 q 102 763 46 707 q 238 819 158 819 l 406 819 l 406 988 l 589 988 l 589 819 l 863 819 l 863 636 m 406 182 l 406 636 l 238 636 q 228 628 228 636 l 228 192 q 238 182 228 182 l 406 182 z "},"£":{"ha":1019,"x_min":54,"x_max":949,"o":"m 949 749 l 767 749 l 767 808 q 758 818 767 818 l 378 818 q 368 808 368 818 l 368 586 l 810 586 l 810 404 l 368 404 l 368 182 l 949 182 l 949 0 l 54 0 l 54 182 l 186 182 l 186 404 l 54 404 l 54 586 l 186 586 l 186 808 q 242 944 186 888 q 378 1000 299 1000 l 758 1000 q 893 944 838 1000 q 949 808 949 888 l 949 749 z "},"¨":{"ha":535,"x_min":75,"x_max":496,"o":"m 496 1275 l 496 1092 l 313 1092 l 313 1275 l 496 1275 m 257 1275 l 257 1092 l 75 1092 l 75 1275 l 257 1275 z "},"°":{"ha":610,"x_min":63,"x_max":564,"o":"m 254 990 l 372 990 q 508 934 451 990 q 564 799 564 878 l 564 693 q 508 558 564 614 q 372 501 451 501 l 254 501 q 119 558 175 501 q 63 693 63 614 l 63 799 q 119 934 63 878 q 254 990 175 990 m 228 658 l 399 658 q 408 667 408 658 l 408 825 q 399 835 408 835 l 228 835 q 218 825 218 835 l 218 667 q 228 658 218 658 z "},"´":{"ha":296,"x_min":46,"x_max":294,"o":"m 46 1092 l 110 1346 l 294 1346 l 231 1092 l 46 1092 z "},"¶":{"ha":1157,"x_min":78,"x_max":1068,"o":"m 78 797 q 134 932 78 875 q 269 989 190 989 l 1068 989 l 1068 0 l 886 0 l 886 339 l 779 339 l 779 0 l 596 0 l 596 339 l 269 339 q 134 396 190 339 q 78 531 78 453 l 78 797 m 779 807 l 779 522 l 886 522 l 886 807 l 779 807 m 260 797 l 260 531 q 269 522 260 522 l 596 522 l 596 807 l 269 807 q 260 797 260 807 z "},"¸":{"ha":296,"x_min":46,"x_max":294,"o":"m 46 -214 l 110 40 l 294 40 l 231 -214 l 46 -214 z "},"¿":{"ha":938,"x_min":26,"x_max":894,"o":"m 894 0 l 218 0 q 83 56 139 0 q 26 192 26 113 l 26 435 q 83 570 26 514 q 218 626 139 626 l 560 626 q 569 635 569 626 l 569 736 l 751 736 l 751 635 q 695 499 751 556 q 560 443 639 443 l 218 443 q 208 435 208 443 l 208 192 q 218 182 208 182 l 894 182 l 894 0 m 751 1000 l 751 818 l 569 818 l 569 1000 l 751 1000 z "},"À":{"ha":1161,"x_min":81,"x_max":1081,"o":"m 274 1000 l 886 1000 q 1024 944 967 1000 q 1081 807 1081 888 l 1081 0 l 896 0 l 896 336 l 264 336 l 264 0 l 81 0 l 81 807 q 137 944 81 888 q 274 1000 193 1000 m 264 519 l 896 519 l 896 807 q 886 817 896 817 l 274 817 q 264 807 264 817 l 264 519 m 663 1336 l 726 1082 l 542 1082 l 478 1336 l 663 1336 z "},"Á":{"ha":1161,"x_min":81,"x_max":1081,"o":"m 274 1000 l 886 1000 q 1024 944 967 1000 q 1081 807 1081 888 l 1081 0 l 896 0 l 896 336 l 264 336 l 264 0 l 81 0 l 81 807 q 137 944 81 888 q 274 1000 193 1000 m 264 519 l 896 519 l 896 807 q 886 817 896 817 l 274 817 q 264 807 264 817 l 264 519 m 478 1081 l 542 1335 l 726 1335 l 663 1081 l 478 1081 z "},"Â":{"ha":1161,"x_min":81,"x_max":1081,"o":"m 274 1000 l 886 1000 q 1024 944 967 1000 q 1081 807 1081 888 l 1081 0 l 896 0 l 896 336 l 264 336 l 264 0 l 81 0 l 81 807 q 137 944 81 888 q 274 1000 193 1000 m 264 519 l 896 519 l 896 807 q 886 817 896 817 l 274 817 q 264 807 264 817 l 264 519 m 556 1081 l 411 1081 l 547 1307 l 668 1307 l 804 1081 l 657 1081 l 606 1163 q 581 1122 597 1150 q 556 1081 564 1093 z "},"Ã":{"ha":1161,"x_min":81,"x_max":1081,"o":"m 274 1000 l 886 1000 q 1024 944 967 1000 q 1081 807 1081 888 l 1081 0 l 896 0 l 896 336 l 264 336 l 264 0 l 81 0 l 81 807 q 137 944 81 888 q 274 1000 193 1000 m 264 519 l 896 519 l 896 807 q 886 817 896 817 l 274 817 q 264 807 264 817 l 264 519 m 721 1214 q 842 1251 786 1214 l 842 1118 q 718 1088 769 1088 q 585 1133 668 1088 q 454 1178 501 1178 l 438 1178 q 336 1125 376 1178 l 336 1279 q 454 1304 399 1304 q 592 1262 508 1304 q 721 1214 676 1219 z "},"Ä":{"ha":1161,"x_min":81,"x_max":1081,"o":"m 274 1000 l 886 1000 q 1024 944 967 1000 q 1081 807 1081 888 l 1081 0 l 896 0 l 896 336 l 264 336 l 264 0 l 81 0 l 81 807 q 137 944 81 888 q 274 1000 193 1000 m 264 519 l 896 519 l 896 807 q 886 817 896 817 l 274 817 q 264 807 264 817 l 264 519 m 808 1251 l 808 1068 l 625 1068 l 625 1251 l 808 1251 m 569 1251 l 569 1068 l 388 1068 l 388 1251 l 569 1251 z "},"Å":{"ha":1161,"x_min":81,"x_max":1081,"o":"m 274 1000 l 886 1000 q 1024 944 967 1000 q 1081 807 1081 888 l 1081 0 l 896 0 l 896 336 l 264 336 l 264 0 l 81 0 l 81 807 q 137 944 81 888 q 274 1000 193 1000 m 264 519 l 896 519 l 896 807 q 886 817 896 817 l 274 817 q 264 807 264 817 l 264 519 m 539 1335 l 614 1335 q 678 1308 651 1335 q 704 1244 704 1281 l 704 1174 q 678 1110 704 1138 q 614 1083 651 1083 l 539 1083 q 475 1110 501 1083 q 449 1174 449 1138 l 449 1244 q 475 1308 449 1281 q 539 1335 501 1335 m 540 1242 l 540 1176 l 613 1176 l 613 1242 l 540 1242 z "},"Æ":{"ha":1910,"x_min":75,"x_max":1811,"o":"m 1075 817 l 1075 592 l 1667 592 l 1667 408 l 1075 408 l 1075 183 l 1811 183 l 1811 0 l 892 0 l 892 336 l 260 336 l 260 0 l 75 0 l 75 807 q 132 944 75 888 q 268 1000 189 1000 l 1811 1000 l 1811 817 l 1075 817 m 892 519 l 892 807 q 882 817 892 817 l 268 817 q 260 807 260 817 l 260 519 l 892 519 z "},"Ç":{"ha":1142,"x_min":78,"x_max":1075,"o":"m 1075 817 l 271 817 q 261 807 261 817 l 261 193 q 271 183 261 183 l 1075 183 l 1075 0 l 706 0 l 653 -214 l 468 -214 l 521 0 l 271 0 q 134 56 190 0 q 78 193 78 113 l 78 807 q 134 944 78 888 q 271 1000 190 1000 l 1075 1000 l 1075 817 z "},"È":{"ha":1064,"x_min":81,"x_max":1000,"o":"m 1000 1000 l 1000 817 l 265 817 l 265 592 l 857 592 l 857 408 l 265 408 l 265 183 l 1000 183 l 1000 0 l 81 0 l 81 1000 l 1000 1000 m 614 1336 l 678 1082 l 493 1082 l 429 1336 l 614 1336 z "},"É":{"ha":1064,"x_min":81,"x_max":1000,"o":"m 1000 1000 l 1000 817 l 265 817 l 265 592 l 857 592 l 857 408 l 265 408 l 265 183 l 1000 183 l 1000 0 l 81 0 l 81 1000 l 1000 1000 m 429 1082 l 493 1336 l 678 1336 l 614 1082 l 429 1082 z "},"Ê":{"ha":1064,"x_min":81,"x_max":1000,"o":"m 1000 1000 l 1000 817 l 265 817 l 265 592 l 857 592 l 857 408 l 265 408 l 265 183 l 1000 183 l 1000 0 l 81 0 l 81 1000 l 1000 1000 m 507 1081 l 363 1081 l 499 1307 l 619 1307 l 756 1081 l 608 1081 l 557 1163 q 532 1122 549 1150 q 507 1081 515 1093 z "},"Ë":{"ha":1064,"x_min":81,"x_max":1000,"o":"m 1000 1000 l 1000 817 l 265 817 l 265 592 l 857 592 l 857 408 l 265 408 l 265 183 l 1000 183 l 1000 0 l 81 0 l 81 1000 l 1000 1000 m 760 1265 l 760 1082 l 576 1082 l 576 1265 l 760 1265 m 521 1265 l 521 1082 l 339 1082 l 339 1265 l 521 1265 z "},"Ì":{"ha":306,"x_min":50,"x_max":299,"o":"m 79 0 l 79 1000 l 263 1000 l 263 0 l 79 0 m 235 1336 l 299 1082 l 114 1082 l 50 1336 l 235 1336 z "},"Í":{"ha":306,"x_min":50,"x_max":299,"o":"m 79 0 l 79 1000 l 263 1000 l 263 0 l 79 0 m 50 1082 l 114 1336 l 299 1336 l 235 1082 l 50 1082 z "},"Î":{"ha":306,"x_min":-17,"x_max":376,"o":"m 79 0 l 79 1000 l 263 1000 l 263 0 l 79 0 m 128 1081 l -17 1081 l 119 1307 l 240 1307 l 376 1081 l 229 1081 l 178 1163 q 153 1122 169 1150 q 128 1081 136 1093 z "},"Ï":{"ha":306,"x_min":-40,"x_max":381,"o":"m 79 0 l 79 1000 l 263 1000 l 263 0 l 79 0 m 381 1265 l 381 1082 l 197 1082 l 197 1265 l 381 1265 m 142 1265 l 142 1082 l -40 1082 l -40 1265 l 142 1265 z "},"Ñ":{"ha":1156,"x_min":78,"x_max":1078,"o":"m 893 267 l 893 1000 l 1078 1000 l 1078 0 l 878 0 l 261 733 l 261 0 l 78 0 l 78 1000 l 278 1000 l 893 267 m 718 1214 q 839 1251 783 1214 l 839 1118 q 715 1088 767 1088 q 582 1133 665 1088 q 451 1178 499 1178 l 435 1178 q 333 1125 374 1178 l 333 1279 q 451 1304 396 1304 q 590 1262 506 1304 q 718 1214 674 1219 z "},"Ò":{"ha":1150,"x_min":75,"x_max":1075,"o":"m 268 1000 l 882 1000 q 1018 944 961 1000 q 1075 807 1075 888 l 1075 193 q 1018 56 1075 113 q 882 0 961 0 l 268 0 q 131 56 188 0 q 75 193 75 113 l 75 807 q 131 944 75 888 q 268 1000 188 1000 m 268 183 l 882 183 q 890 193 890 183 l 890 807 q 882 817 890 817 l 268 817 q 258 807 258 817 l 258 193 q 268 183 258 183 m 657 1336 l 721 1082 l 536 1082 l 472 1336 l 657 1336 z "},"Ó":{"ha":1150,"x_min":75,"x_max":1075,"o":"m 268 1000 l 882 1000 q 1018 944 961 1000 q 1075 807 1075 888 l 1075 193 q 1018 56 1075 113 q 882 0 961 0 l 268 0 q 131 56 188 0 q 75 193 75 113 l 75 807 q 131 944 75 888 q 268 1000 188 1000 m 268 183 l 882 183 q 890 193 890 183 l 890 807 q 882 817 890 817 l 268 817 q 258 807 258 817 l 258 193 q 268 183 258 183 m 472 1082 l 536 1336 l 721 1336 l 657 1082 l 472 1082 z "},"Ô":{"ha":1150,"x_min":75,"x_max":1075,"o":"m 268 1000 l 882 1000 q 1018 944 961 1000 q 1075 807 1075 888 l 1075 193 q 1018 56 1075 113 q 882 0 961 0 l 268 0 q 131 56 188 0 q 75 193 75 113 l 75 807 q 131 944 75 888 q 268 1000 188 1000 m 268 183 l 882 183 q 890 193 890 183 l 890 807 q 882 817 890 817 l 268 817 q 258 807 258 817 l 258 193 q 268 183 258 183 m 550 1081 l 406 1081 l 542 1307 l 663 1307 l 799 1081 l 651 1081 l 600 1163 q 575 1122 592 1150 q 550 1081 558 1093 z "},"Õ":{"ha":1150,"x_min":75,"x_max":1075,"o":"m 268 1000 l 882 1000 q 1018 944 961 1000 q 1075 807 1075 888 l 1075 193 q 1018 56 1075 113 q 882 0 961 0 l 268 0 q 131 56 188 0 q 75 193 75 113 l 75 807 q 131 944 75 888 q 268 1000 188 1000 m 268 183 l 882 183 q 890 193 890 183 l 890 807 q 882 817 890 817 l 268 817 q 258 807 258 817 l 258 193 q 268 183 258 183 m 715 1214 q 836 1251 781 1214 l 836 1118 q 713 1088 764 1088 q 579 1133 663 1088 q 449 1178 496 1178 l 432 1178 q 331 1125 371 1178 l 331 1279 q 449 1304 393 1304 q 587 1262 503 1304 q 715 1214 671 1219 z "},"Ö":{"ha":1150,"x_min":75,"x_max":1075,"o":"m 268 1000 l 882 1000 q 1018 944 961 1000 q 1075 807 1075 888 l 1075 193 q 1018 56 1075 113 q 882 0 961 0 l 268 0 q 131 56 188 0 q 75 193 75 113 l 75 807 q 131 944 75 888 q 268 1000 188 1000 m 268 183 l 882 183 q 890 193 890 183 l 890 807 q 882 817 890 817 l 268 817 q 258 807 258 817 l 258 193 q 268 183 258 183 m 803 1265 l 803 1082 l 619 1082 l 619 1265 l 803 1265 m 564 1265 l 564 1082 l 382 1082 l 382 1265 l 564 1265 z "},"×":{"ha":758,"x_min":74,"x_max":694,"o":"m 694 713 l 694 667 l 501 417 l 694 165 l 694 119 l 494 119 l 383 271 l 272 119 l 74 119 l 74 165 l 267 417 l 74 667 l 74 713 l 272 713 l 383 561 l 494 713 l 694 713 z "},"Ù":{"ha":1150,"x_min":75,"x_max":1075,"o":"m 890 193 l 890 1000 l 1075 1000 l 1075 193 q 1018 56 1075 113 q 882 0 961 0 l 268 0 q 131 56 188 0 q 75 193 75 113 l 75 1000 l 258 1000 l 258 193 q 268 183 258 183 l 882 183 q 890 193 890 183 m 657 1336 l 721 1082 l 536 1082 l 472 1336 l 657 1336 z "},"Ú":{"ha":1150,"x_min":75,"x_max":1075,"o":"m 890 193 l 890 1000 l 1075 1000 l 1075 193 q 1018 56 1075 113 q 882 0 961 0 l 268 0 q 131 56 188 0 q 75 193 75 113 l 75 1000 l 258 1000 l 258 193 q 268 183 258 183 l 882 183 q 890 193 890 183 m 472 1082 l 536 1336 l 721 1336 l 657 1082 l 472 1082 z "},"Û":{"ha":1150,"x_min":75,"x_max":1075,"o":"m 890 193 l 890 1000 l 1075 1000 l 1075 193 q 1018 56 1075 113 q 882 0 961 0 l 268 0 q 131 56 188 0 q 75 193 75 113 l 75 1000 l 258 1000 l 258 193 q 268 183 258 183 l 882 183 q 890 193 890 183 m 550 1081 l 406 1081 l 542 1307 l 663 1307 l 799 1081 l 651 1081 l 600 1163 q 575 1122 592 1150 q 550 1081 558 1093 z "},"Ü":{"ha":1150,"x_min":75,"x_max":1075,"o":"m 890 193 l 890 1000 l 1075 1000 l 1075 193 q 1018 56 1075 113 q 882 0 961 0 l 268 0 q 131 56 188 0 q 75 193 75 113 l 75 1000 l 258 1000 l 258 193 q 268 183 258 183 l 882 183 q 890 193 890 183 m 803 1265 l 803 1082 l 619 1082 l 619 1265 l 803 1265 m 564 1265 l 564 1082 l 382 1082 l 382 1265 l 564 1265 z "},"Ý":{"ha":1119,"x_min":24,"x_max":1132,"o":"m 913 1000 l 1132 1000 l 669 374 l 669 0 l 486 0 l 486 374 l 24 1000 l 242 1000 l 578 575 l 913 1000 m 457 1082 l 521 1336 l 706 1336 l 642 1082 l 457 1082 z "},"ß":{"ha":1157,"x_min":79,"x_max":1069,"o":"m 1069 832 l 1069 608 q 1042 508 1069 550 q 1069 408 1069 467 l 1069 192 q 1013 56 1069 113 q 878 0 957 0 l 379 0 l 379 182 l 878 182 q 888 192 888 182 l 888 408 q 878 417 888 417 l 379 417 l 379 585 l 878 585 q 888 594 888 585 l 888 797 q 878 807 888 807 l 271 807 q 261 797 261 807 l 261 0 l 79 0 l 79 799 q 135 934 79 878 q 271 990 192 990 l 878 990 q 1003 945 949 990 q 1069 832 1058 900 z "},"à":{"ha":1007,"x_min":72,"x_max":890,"o":"m 699 806 q 834 749 778 806 q 890 614 890 693 l 890 0 l 264 0 q 128 56 185 0 q 72 192 72 113 l 72 494 l 708 494 l 708 614 q 699 624 708 624 l 72 624 l 72 806 l 699 806 m 708 182 l 708 311 l 254 311 l 254 192 q 264 182 254 182 l 708 182 m 585 1194 l 649 940 l 464 940 l 400 1194 l 585 1194 z "},"á":{"ha":1007,"x_min":72,"x_max":890,"o":"m 699 806 q 834 749 778 806 q 890 614 890 693 l 890 0 l 264 0 q 128 56 185 0 q 72 192 72 113 l 72 494 l 708 494 l 708 614 q 699 624 708 624 l 72 624 l 72 806 l 699 806 m 708 182 l 708 311 l 254 311 l 254 192 q 264 182 254 182 l 708 182 m 400 940 l 464 1194 l 649 1194 l 585 940 l 400 940 z "},"â":{"ha":1007,"x_min":72,"x_max":890,"o":"m 699 806 q 834 749 778 806 q 890 614 890 693 l 890 0 l 264 0 q 128 56 185 0 q 72 192 72 113 l 72 494 l 708 494 l 708 614 q 699 624 708 624 l 72 624 l 72 806 l 699 806 m 708 182 l 708 311 l 254 311 l 254 192 q 264 182 254 182 l 708 182 m 478 940 l 333 940 l 469 1167 l 590 1167 l 726 940 l 579 940 l 528 1022 q 503 981 519 1010 q 478 940 486 953 z "},"ã":{"ha":1007,"x_min":72,"x_max":890,"o":"m 699 806 q 834 749 778 806 q 890 614 890 693 l 890 0 l 264 0 q 128 56 185 0 q 72 192 72 113 l 72 494 l 708 494 l 708 614 q 699 624 708 624 l 72 624 l 72 806 l 699 806 m 708 182 l 708 311 l 254 311 l 254 192 q 264 182 254 182 l 708 182 m 643 1071 q 764 1108 708 1071 l 764 975 q 640 944 692 944 q 507 990 590 944 q 376 1035 424 1035 l 360 1035 q 258 982 299 1035 l 258 1136 q 376 1161 321 1161 q 515 1119 431 1161 q 643 1071 599 1076 z "},"ä":{"ha":1007,"x_min":72,"x_max":890,"o":"m 699 806 q 834 749 778 806 q 890 614 890 693 l 890 0 l 264 0 q 128 56 185 0 q 72 192 72 113 l 72 494 l 708 494 l 708 614 q 699 624 708 624 l 72 624 l 72 806 l 699 806 m 708 182 l 708 311 l 254 311 l 254 192 q 264 182 254 182 l 708 182 m 731 1124 l 731 940 l 547 940 l 547 1124 l 731 1124 m 492 1124 l 492 940 l 310 940 l 310 1124 l 492 1124 z "},"å":{"ha":1007,"x_min":72,"x_max":890,"o":"m 699 806 q 834 749 778 806 q 890 614 890 693 l 890 0 l 264 0 q 128 56 185 0 q 72 192 72 113 l 72 494 l 708 494 l 708 614 q 699 624 708 624 l 72 624 l 72 806 l 699 806 m 708 182 l 708 311 l 254 311 l 254 192 q 264 182 254 182 l 708 182 m 461 1192 l 536 1192 q 600 1165 574 1192 q 626 1101 626 1138 l 626 1031 q 600 967 626 994 q 536 940 574 940 l 461 940 q 397 967 424 940 q 371 1031 371 994 l 371 1101 q 397 1165 371 1138 q 461 1192 424 1192 m 463 1099 l 463 1033 l 535 1033 l 535 1099 l 463 1099 z "},"æ":{"ha":1636,"x_min":74,"x_max":1528,"o":"m 1338 806 q 1472 749 1417 806 q 1528 614 1528 693 l 1528 311 l 892 311 l 892 189 q 901 182 892 182 l 1528 182 l 1528 0 l 264 0 q 129 56 185 0 q 74 192 74 113 l 74 494 l 710 494 l 710 614 q 700 624 710 624 l 74 624 l 74 806 l 1338 806 m 710 182 l 710 311 l 256 311 l 256 192 q 264 182 256 182 l 710 182 m 892 494 l 1346 494 l 1346 614 q 1338 624 1346 624 l 901 624 q 892 614 892 624 l 892 494 z "},"ç":{"ha":963,"x_min":71,"x_max":889,"o":"m 263 182 l 889 182 l 889 0 l 601 0 l 549 -214 l 364 -214 l 417 0 l 263 0 q 127 56 183 0 q 71 192 71 113 l 71 614 q 127 749 71 693 q 263 806 183 806 l 886 806 l 886 624 l 263 624 q 253 614 253 624 l 253 192 q 263 182 253 182 z "},"è":{"ha":886,"x_min":71,"x_max":889,"o":"m 697 806 q 833 749 776 806 q 889 614 889 693 l 889 311 l 253 311 l 253 192 q 263 182 253 182 l 889 182 l 889 0 l 263 0 q 127 56 183 0 q 71 192 71 113 l 71 614 q 127 749 71 693 q 263 806 183 806 l 697 806 m 253 494 l 707 494 l 707 614 q 697 624 707 624 l 263 624 q 253 614 253 624 l 253 494 m 525 1194 l 589 940 l 404 940 l 340 1194 l 525 1194 z "},"é":{"ha":886,"x_min":71,"x_max":889,"o":"m 697 806 q 833 749 776 806 q 889 614 889 693 l 889 311 l 253 311 l 253 192 q 263 182 253 182 l 889 182 l 889 0 l 263 0 q 127 56 183 0 q 71 192 71 113 l 71 614 q 127 749 71 693 q 263 806 183 806 l 697 806 m 253 494 l 707 494 l 707 614 q 697 624 707 624 l 263 624 q 253 614 253 624 l 253 494 m 340 942 l 404 1196 l 589 1196 l 525 942 l 340 942 z "},"ê":{"ha":886,"x_min":71,"x_max":889,"o":"m 697 806 q 833 749 776 806 q 889 614 889 693 l 889 311 l 253 311 l 253 192 q 263 182 253 182 l 889 182 l 889 0 l 263 0 q 127 56 183 0 q 71 192 71 113 l 71 614 q 127 749 71 693 q 263 806 183 806 l 697 806 m 253 494 l 707 494 l 707 614 q 697 624 707 624 l 263 624 q 253 614 253 624 l 253 494 m 418 940 l 274 940 l 410 1167 l 531 1167 l 667 940 l 519 940 l 468 1022 q 443 981 460 1010 q 418 940 426 953 z "},"ë":{"ha":886,"x_min":71,"x_max":889,"o":"m 697 806 q 833 749 776 806 q 889 614 889 693 l 889 311 l 253 311 l 253 192 q 263 182 253 182 l 889 182 l 889 0 l 263 0 q 127 56 183 0 q 71 192 71 113 l 71 614 q 127 749 71 693 q 263 806 183 806 l 697 806 m 253 494 l 707 494 l 707 614 q 697 624 707 624 l 263 624 q 253 614 253 624 l 253 494 m 671 1124 l 671 940 l 488 940 l 488 1124 l 671 1124 m 432 1124 l 432 940 l 250 940 l 250 1124 l 432 1124 z "},"ì":{"ha":297,"x_min":22,"x_max":271,"o":"m 78 0 l 78 806 l 260 806 l 260 0 l 78 0 m 207 1196 l 271 942 l 86 942 l 22 1196 l 207 1196 z "},"í":{"ha":297,"x_min":68,"x_max":317,"o":"m 71 0 l 71 806 l 253 806 l 253 0 l 71 0 m 68 940 l 132 1194 l 317 1194 l 253 940 l 68 940 z "},"î":{"ha":297,"x_min":-21,"x_max":372,"o":"m 71 0 l 71 806 l 253 806 l 253 0 l 71 0 m 124 940 l -21 940 l 115 1167 l 236 1167 l 372 940 l 225 940 l 174 1022 q 149 981 165 1010 q 124 940 132 953 z "},"ï":{"ha":297,"x_min":-44,"x_max":376,"o":"m 76 0 l 76 806 l 258 806 l 258 0 l 76 0 m 376 1126 l 376 943 l 193 943 l 193 1126 l 376 1126 m 138 1126 l 138 943 l -44 943 l -44 1126 l 138 1126 z "},"ñ":{"ha":983,"x_min":75,"x_max":893,"o":"m 701 806 q 837 749 781 806 q 893 614 893 693 l 893 0 l 711 0 l 711 614 q 701 624 711 624 l 267 624 q 257 614 257 624 l 257 0 l 75 0 l 75 806 l 701 806 m 632 1069 q 753 1107 697 1069 l 753 974 q 629 943 681 943 q 496 988 579 943 q 365 1033 413 1033 l 349 1033 q 247 981 288 1033 l 247 1135 q 365 1160 310 1160 q 503 1117 419 1160 q 632 1069 588 1075 z "},"ò":{"ha":961,"x_min":71,"x_max":889,"o":"m 263 806 l 697 806 q 833 749 776 806 q 889 614 889 693 l 889 192 q 833 56 889 113 q 697 0 776 0 l 263 0 q 127 56 183 0 q 71 192 71 113 l 71 614 q 127 749 71 693 q 263 806 183 806 m 697 624 l 263 624 q 253 614 253 624 l 253 192 q 263 182 253 182 l 697 182 q 707 192 707 182 l 707 614 q 697 624 707 624 m 563 1196 l 626 942 l 442 942 l 378 1196 l 563 1196 z "},"ó":{"ha":961,"x_min":71,"x_max":889,"o":"m 263 806 l 697 806 q 833 749 776 806 q 889 614 889 693 l 889 192 q 833 56 889 113 q 697 0 776 0 l 263 0 q 127 56 183 0 q 71 192 71 113 l 71 614 q 127 749 71 693 q 263 806 183 806 m 697 624 l 263 624 q 253 614 253 624 l 253 192 q 263 182 253 182 l 697 182 q 707 192 707 182 l 707 614 q 697 624 707 624 m 378 942 l 442 1196 l 626 1196 l 563 942 l 378 942 z "},"ô":{"ha":961,"x_min":71,"x_max":889,"o":"m 263 806 l 697 806 q 833 749 776 806 q 889 614 889 693 l 889 192 q 833 56 889 113 q 697 0 776 0 l 263 0 q 127 56 183 0 q 71 192 71 113 l 71 614 q 127 749 71 693 q 263 806 183 806 m 697 624 l 263 624 q 253 614 253 624 l 253 192 q 263 182 253 182 l 697 182 q 707 192 707 182 l 707 614 q 697 624 707 624 m 456 940 l 311 940 l 447 1167 l 568 1167 l 704 940 l 557 940 l 506 1022 q 481 981 497 1010 q 456 940 464 953 z "},"õ":{"ha":961,"x_min":71,"x_max":889,"o":"m 263 806 l 697 806 q 833 749 776 806 q 889 614 889 693 l 889 192 q 833 56 889 113 q 697 0 776 0 l 263 0 q 127 56 183 0 q 71 192 71 113 l 71 614 q 127 749 71 693 q 263 806 183 806 m 697 624 l 263 624 q 253 614 253 624 l 253 192 q 263 182 253 182 l 697 182 q 707 192 707 182 l 707 614 q 697 624 707 624 m 621 1069 q 742 1107 686 1069 l 742 974 q 618 943 669 943 q 485 988 568 943 q 354 1033 401 1033 l 338 1033 q 236 981 276 1033 l 236 1135 q 354 1160 299 1160 q 492 1117 408 1160 q 621 1069 576 1075 z "},"ö":{"ha":961,"x_min":71,"x_max":889,"o":"m 263 806 l 697 806 q 833 749 776 806 q 889 614 889 693 l 889 192 q 833 56 889 113 q 697 0 776 0 l 263 0 q 127 56 183 0 q 71 192 71 113 l 71 614 q 127 749 71 693 q 263 806 183 806 m 697 624 l 263 624 q 253 614 253 624 l 253 192 q 263 182 253 182 l 697 182 q 707 192 707 182 l 707 614 q 697 624 707 624 m 708 1126 l 708 943 l 525 943 l 525 1126 l 708 1126 m 469 1126 l 469 943 l 288 943 l 288 1126 l 469 1126 z "},"÷":{"ha":697,"x_min":25,"x_max":699,"o":"m 699 501 l 699 319 l 25 319 l 25 501 l 699 501 m 279 183 l 461 183 l 461 1 l 279 1 l 279 183 m 461 818 l 461 635 l 279 635 l 279 818 l 461 818 z "},"ù":{"ha":965,"x_min":74,"x_max":892,"o":"m 710 806 l 892 806 l 892 192 q 835 56 892 113 q 700 0 779 0 l 265 0 q 129 56 185 0 q 74 192 74 113 l 74 806 l 256 806 l 256 192 q 265 182 256 182 l 700 182 q 710 192 710 182 l 710 806 m 564 1196 l 628 942 l 443 942 l 379 1196 l 564 1196 z "},"ú":{"ha":965,"x_min":74,"x_max":892,"o":"m 710 806 l 892 806 l 892 192 q 835 56 892 113 q 700 0 779 0 l 265 0 q 129 56 185 0 q 74 192 74 113 l 74 806 l 256 806 l 256 192 q 265 182 256 182 l 700 182 q 710 192 710 182 l 710 806 m 379 942 l 443 1196 l 628 1196 l 564 942 l 379 942 z "},"û":{"ha":965,"x_min":74,"x_max":892,"o":"m 710 806 l 892 806 l 892 192 q 835 56 892 113 q 700 0 779 0 l 265 0 q 129 56 185 0 q 74 192 74 113 l 74 806 l 256 806 l 256 192 q 265 182 256 182 l 700 182 q 710 192 710 182 l 710 806 m 457 942 l 313 942 l 449 1168 l 569 1168 l 706 942 l 558 942 l 507 1024 q 482 983 499 1011 q 457 942 465 954 z "},"ü":{"ha":965,"x_min":74,"x_max":892,"o":"m 710 806 l 892 806 l 892 192 q 835 56 892 113 q 700 0 779 0 l 265 0 q 129 56 185 0 q 74 192 74 113 l 74 806 l 256 806 l 256 192 q 265 182 256 182 l 700 182 q 710 192 710 182 l 710 806 m 710 1124 l 710 940 l 526 940 l 526 1124 l 710 1124 m 471 1124 l 471 940 l 289 940 l 289 1124 l 471 1124 z "},"ý":{"ha":956,"x_min":58,"x_max":876,"o":"m 876 -128 q 821 -263 876 -207 q 686 -319 765 -319 l 193 -319 l 193 -136 l 686 -136 q 694 -128 694 -136 l 694 0 l 250 0 q 115 56 171 0 q 58 192 58 113 l 58 803 l 240 803 l 240 192 q 250 182 240 182 l 686 182 q 694 192 694 182 l 694 803 l 876 803 l 876 -128 m 375 942 l 439 1196 l 624 1196 l 560 942 l 375 942 z "},"ÿ":{"ha":956,"x_min":58,"x_max":876,"o":"m 876 -128 q 821 -263 876 -207 q 686 -319 765 -319 l 193 -319 l 193 -136 l 686 -136 q 694 -128 694 -136 l 694 0 l 250 0 q 115 56 171 0 q 58 192 58 113 l 58 803 l 240 803 l 240 192 q 250 182 240 182 l 686 182 q 694 192 694 182 l 694 803 l 876 803 l 876 -128 m 706 1126 l 706 943 l 522 943 l 522 1126 l 706 1126 m 467 1126 l 467 943 l 285 943 l 285 1126 l 467 1126 z "},"ı":{"ha":297,"x_min":72,"x_max":254,"o":"m 72 0 l 72 806 l 254 806 l 254 0 l 72 0 z "},"Œ":{"ha":1908,"x_min":74,"x_max":1810,"o":"m 1074 817 l 1074 592 l 1665 592 l 1665 408 l 1074 408 l 1074 183 l 1810 183 l 1810 0 l 267 0 q 131 56 188 0 q 74 193 74 113 l 74 807 q 131 944 74 888 q 267 1000 188 1000 l 1810 1000 l 1810 817 l 1074 817 m 881 183 q 890 193 890 183 l 890 807 q 881 817 890 817 l 267 817 q 258 807 258 817 l 258 193 q 267 183 258 183 l 881 183 z "},"œ":{"ha":1635,"x_min":72,"x_max":1526,"o":"m 1526 311 l 890 311 l 890 192 q 900 182 890 182 l 1526 182 l 1526 0 l 264 0 q 128 56 183 0 q 72 192 72 113 l 72 614 q 128 749 72 693 q 264 806 183 806 l 1336 806 q 1471 749 1415 806 q 1526 614 1526 693 l 1526 311 m 900 624 q 890 614 890 624 l 890 494 l 1344 494 l 1344 614 q 1336 624 1344 624 l 900 624 m 699 182 q 708 192 708 182 l 708 614 q 699 624 708 624 l 264 624 q 254 614 254 624 l 254 192 q 264 182 254 182 l 699 182 z "},"Š":{"ha":1142,"x_min":71,"x_max":1071,"o":"m 1071 807 l 1071 731 l 886 731 l 886 807 q 878 817 886 817 l 264 817 q 254 807 254 817 l 254 601 q 264 592 254 592 l 878 592 q 1014 535 957 592 q 1071 399 1071 479 l 1071 193 q 1014 56 1071 113 q 878 0 957 0 l 264 0 q 127 56 183 0 q 71 193 71 113 l 71 269 l 254 269 l 254 193 q 264 183 254 183 l 878 183 q 886 193 886 183 l 886 399 q 878 408 886 408 l 264 408 q 127 465 183 408 q 71 601 71 521 l 71 807 q 127 944 71 888 q 264 1000 183 1000 l 878 1000 q 1014 944 957 1000 q 1071 807 1071 888 m 401 1307 l 544 1307 l 596 1225 l 647 1307 l 794 1307 l 658 1081 l 538 1081 l 401 1307 z "},"š":{"ha":954,"x_min":67,"x_max":885,"o":"m 885 614 l 885 579 l 703 579 l 703 614 q 693 624 703 624 l 258 624 q 249 614 249 624 l 249 503 q 258 494 249 494 l 693 494 q 829 438 774 494 q 885 303 885 382 l 885 192 q 829 56 885 113 q 693 0 774 0 l 258 0 q 123 56 179 0 q 67 192 67 113 l 67 226 l 249 226 l 249 192 q 258 182 249 182 l 693 182 q 703 192 703 182 l 703 303 q 693 311 703 311 l 258 311 q 123 367 179 311 q 67 503 67 424 l 67 614 q 123 749 67 693 q 258 806 179 806 l 693 806 q 829 749 774 806 q 885 614 885 693 m 307 1167 l 450 1167 l 501 1085 l 553 1167 l 700 1167 l 564 940 l 443 940 l 307 1167 z "},"Ÿ":{"ha":1119,"x_min":24,"x_max":1132,"o":"m 913 1000 l 1132 1000 l 669 374 l 669 0 l 486 0 l 486 374 l 24 1000 l 242 1000 l 578 575 l 913 1000 m 788 1265 l 788 1082 l 604 1082 l 604 1265 l 788 1265 m 549 1265 l 549 1082 l 367 1082 l 367 1265 l 549 1265 z "},"Ž":{"ha":1140,"x_min":71,"x_max":1071,"o":"m 71 817 l 71 1000 l 1071 1000 l 1071 800 l 338 183 l 1071 183 l 1071 0 l 71 0 l 71 200 l 804 817 l 71 817 m 400 1307 l 543 1307 l 594 1225 l 646 1307 l 793 1307 l 657 1081 l 536 1081 l 400 1307 z "},"ž":{"ha":969,"x_min":75,"x_max":893,"o":"m 75 624 l 75 806 l 893 806 l 893 607 l 343 182 l 893 182 l 893 0 l 75 0 l 75 199 l 625 624 l 75 624 m 315 1171 l 458 1171 l 510 1089 l 561 1171 l 708 1171 l 572 944 l 451 944 l 315 1171 z "},"ˆ":{"ha":417,"x_min":39,"x_max":432,"o":"m 183 1090 l 39 1090 l 175 1317 l 296 1317 l 432 1090 l 285 1090 l 233 1172 q 208 1131 225 1160 q 183 1090 192 1103 z "},"ˇ":{"ha":413,"x_min":38,"x_max":431,"o":"m 38 1317 l 181 1317 l 232 1235 l 283 1317 l 431 1317 l 294 1090 l 174 1090 l 38 1317 z "},"˘":{"ha":399,"x_min":56,"x_max":368,"o":"m 263 1243 l 368 1243 l 368 1214 q 333 1127 368 1163 q 246 1092 299 1092 l 178 1092 q 90 1127 125 1092 q 56 1214 56 1163 l 56 1243 l 163 1243 l 163 1200 l 263 1200 l 263 1243 z "},"˙":{"ha":324,"x_min":63,"x_max":293,"o":"m 154 1318 l 201 1318 q 266 1291 239 1318 q 293 1228 293 1264 l 293 1183 q 266 1120 293 1147 q 201 1093 239 1093 l 154 1093 q 90 1120 117 1093 q 63 1183 63 1147 l 63 1228 q 90 1291 63 1264 q 154 1318 117 1318 z "},"˚":{"ha":324,"x_min":31,"x_max":286,"o":"m 121 1344 l 196 1344 q 260 1317 233 1344 q 286 1254 286 1290 l 286 1183 q 260 1120 286 1147 q 196 1093 233 1093 l 121 1093 q 57 1120 83 1093 q 31 1183 31 1147 l 31 1254 q 57 1317 31 1290 q 121 1344 83 1344 m 122 1251 l 122 1186 l 194 1186 l 194 1251 l 122 1251 z "},"˜":{"ha":560,"x_min":32,"x_max":538,"o":"m 417 1224 q 538 1261 481 1224 l 538 1128 q 414 1097 465 1097 q 281 1142 364 1097 q 150 1188 197 1188 l 133 1188 q 32 1135 72 1188 l 32 1289 q 150 1314 94 1314 q 288 1272 203 1314 q 417 1224 372 1229 z "},"–":{"ha":983,"x_min":75,"x_max":907,"o":"m 907 500 l 907 318 l 75 318 l 75 500 l 907 500 z "},"—":{"ha":1142,"x_min":75,"x_max":1058,"o":"m 1058 500 l 1058 318 l 75 318 l 75 500 l 1058 500 z "},"‘":{"ha":301,"x_min":47,"x_max":229,"o":"m 229 649 l 47 649 l 47 811 q 99 938 47 883 q 229 1004 151 992 l 229 649 z "},"’":{"ha":300,"x_min":75,"x_max":257,"o":"m 75 1000 l 257 1000 l 257 838 q 205 713 257 767 q 75 644 153 658 l 75 1000 z "},"“":{"ha":558,"x_min":63,"x_max":485,"o":"m 244 649 l 63 649 l 63 811 q 115 938 63 883 q 244 1004 167 992 l 244 649 m 485 649 l 303 649 l 303 811 q 355 938 303 883 q 485 1004 407 992 l 485 649 z "},"”":{"ha":557,"x_min":75,"x_max":497,"o":"m 314 1000 l 497 1000 l 497 838 q 445 713 497 767 q 314 644 393 658 l 314 1000 m 75 1000 l 257 1000 l 257 838 q 205 713 257 767 q 75 644 153 658 l 75 1000 z "},"•":{"ha":515,"x_min":164,"x_max":346,"o":"m 239 583 l 269 583 q 346 508 346 583 l 346 482 q 269 407 346 407 l 239 407 q 164 482 164 407 l 164 508 q 239 583 164 583 z "},"…":{"ha":797,"x_min":75,"x_max":758,"o":"m 508 182 l 508 0 l 325 0 l 325 182 l 508 182 m 758 182 l 758 0 l 576 0 l 576 182 l 758 182 m 257 182 l 257 0 l 75 0 l 75 182 l 257 182 z "},"€":{"ha":1110,"x_min":49,"x_max":1036,"o":"m 372 182 l 1036 182 l 1036 0 l 372 0 q 237 56 293 0 q 181 192 181 113 l 181 274 l 49 274 l 49 456 l 181 456 l 181 535 l 49 535 l 49 717 l 181 717 l 181 808 q 237 944 181 888 q 372 1000 293 1000 l 1036 1000 l 1036 818 l 372 818 q 363 808 363 818 l 363 717 l 893 717 l 893 535 l 363 535 l 363 456 l 893 456 l 893 274 l 363 274 l 363 192 q 372 182 363 182 z "},"−":{"ha":718,"x_min":82,"x_max":650,"o":"m 650 501 l 650 319 l 82 319 l 82 501 l 650 501 z "},"":{"ha":0,"x_min":0,"x_max":0,"o":""},"":{"ha":1071,"x_min":64,"x_max":1056,"o":"m 64 1000 l 1056 1000 l 1056 954 l 263 0 l 64 0 l 64 46 l 704 818 l 64 818 l 64 1000 z "},"":{"ha":1089,"x_min":17,"x_max":1007,"o":"m 208 997 l 817 997 q 951 941 896 997 q 1007 806 1007 885 l 1007 0 l 825 0 l 825 389 q 817 399 825 399 l 208 399 q 73 454 129 399 q 17 589 17 510 l 17 806 q 73 941 17 885 q 208 997 129 997 m 825 581 l 825 806 q 817 815 825 815 l 208 815 q 200 806 200 815 l 200 589 q 208 581 200 581 l 825 581 z "},"":{"ha":1132,"x_min":68,"x_max":1057,"o":"m 1057 644 l 903 565 l 251 217 l 251 182 l 1057 182 l 1057 0 l 257 0 q 138 43 190 0 q 69 150 85 86 l 68 328 l 874 756 l 874 818 l 260 818 q 251 808 251 818 l 251 717 l 68 717 l 68 808 q 124 944 68 888 q 260 1000 181 1000 l 868 1000 q 991 955 938 1000 q 1057 842 1044 910 l 1057 644 z "},"":{"ha":926,"x_min":38,"x_max":893,"o":"m 226 1000 l 701 1000 q 837 944 781 1000 q 893 808 893 888 l 893 565 q 837 430 893 486 q 701 374 781 374 l 450 374 q 442 365 442 374 l 442 224 l 258 224 l 258 365 q 315 501 258 444 q 450 557 371 557 l 701 557 q 711 565 711 557 l 711 808 q 701 818 711 818 l 219 818 l 219 675 l 38 675 l 38 840 q 102 954 49 908 q 226 1000 156 1000 m 442 0 l 258 0 l 258 182 l 442 182 l 442 0 z "},"":{"ha":1004,"x_min":13,"x_max":964,"o":"m 824 433 l 964 433 l 964 251 l 824 251 l 824 0 l 642 0 l 642 251 l 13 251 l 13 421 l 507 1000 l 678 1000 l 678 907 l 249 433 l 642 433 l 642 631 l 824 631 l 824 433 z "},"":{"ha":1075,"x_min":75,"x_max":1065,"o":"m 75 1000 l 257 1000 l 257 264 l 868 1000 l 1065 1000 l 1065 944 l 274 0 l 75 0 l 75 1000 z "},"":{"ha":1075,"x_min":0,"x_max":990,"o":"m 0 0 l 0 46 l 792 1000 l 990 1000 l 990 0 l 807 0 l 807 254 l 411 254 l 199 0 l 0 0 m 807 726 l 564 436 l 807 436 l 807 726 z "},"":{"ha":1075,"x_min":75,"x_max":1065,"o":"m 75 1000 l 274 1000 l 1065 46 l 1065 0 l 868 0 l 654 254 l 257 254 l 257 0 l 75 0 l 75 1000 m 257 724 l 257 436 l 501 436 l 257 724 z "}}}
